<?xml version="1.0" encoding="utf-8"?>
<!-- Generator: Adobe Illustrator 19.0.0, SVG Export Plug-In . SVG Version: 6.00 Build 0)  -->
<svg version="1.1" id="Layer_1" xmlns="http://www.w3.org/2000/svg" xmlns:xlink="http://www.w3.org/1999/xlink" x="0px" y="0px"
	 viewBox="-216 321 178 151" style="enable-background:new -216 321 178 151;" xml:space="preserve">
<g id="XMLID_2_">
	<path id="XMLID_6_" d="M-138.2,360.2v68.6c0,26-17.5,28-40.9,28v7.6c18.9,0,48.3,2,48.3-36.1v-68.1H-138.2z"/>
	<path id="XMLID_5_" d="M-103.1,360.2v68.6c0,26,17.5,28,40.9,28v7.6c-18.9,0-48.3,2-48.3-36.1v-68.1H-103.1z"/>
	<path id="XMLID_4_" d="M-116.7,432.8v-68.6c0-26,17.5-28,40.9-28v-7.6c-18.9,0-48.3-2-48.3,36.1v68.1H-116.7z"/>
	<path id="XMLID_3_" d="M-52.9,356c12.1,19.5-35.3,66.6-156.2,40.4C-165.9,423.5-7.8,412.3-52.9,356"/>
</g>
</svg>
